<?xml version="1.0" encoding="UTF-8" standalone="no"?><!DOCTYPE svg PUBLIC "-//W3C//DTD SVG 1.1//EN" "http://www.w3.org/Graphics/SVG/1.1/DTD/svg11.dtd"><!-- Generated by graphviz version 2.40.1 (20161225.0304)
 --><!-- Title: ViaCEP Pages: 1 --><svg xmlns="http://www.w3.org/2000/svg" xmlns:xlink="http://www.w3.org/1999/xlink" width="834pt" height="758pt" viewBox="0.00 0.00 834.43 757.53">
<g id="graph0" class="graph" transform="scale(1 1) rotate(0) translate(4 753.531)">
<title>ViaCEP</title>
<polygon fill="#ffffff" stroke="transparent" points="-4,4 -4,-753.531 830.4286,-753.531 830.4286,4 -4,4"/>
<!-- :app -->
<g id="node1" class="node">
<title>:app</title>
<polygon fill="none" stroke="#000000" points="254.5676,-79.0312 200.5676,-79.0312 200.5676,-43.0312 254.5676,-43.0312 254.5676,-79.0312"/>
<text text-anchor="middle" x="227.5676" y="-56.8312" font-family="Helvetica,sans-Serif" font-size="14.00" fill="#000000">:app</text>
</g>
<!-- :libraries:arch -->
<g id="node2" class="node">
<title>:libraries:arch</title>
<polygon fill="none" stroke="#000000" points="521.6054,-36 421.6138,-36 421.6138,0 521.6054,0 521.6054,-36"/>
<text text-anchor="middle" x="471.6096" y="-13.8" font-family="Helvetica,sans-Serif" font-size="14.00" fill="#000000">:libraries:arch</text>
</g>
<!-- :app&#45;&gt;:libraries:arch -->
<g id="edge1" class="edge">
<title>:app-&gt;:libraries:arch</title>
<path fill="none" stroke="#000000" d="M254.6168,-56.2617C292.2337,-49.6288 361.365,-37.4391 411.5115,-28.5969"/>
<polygon fill="#000000" stroke="#000000" points="412.3487,-32.0034 421.589,-26.82 411.1332,-25.1097 412.3487,-32.0034"/>
</g>
<!-- :libraries:testLibs:lattetools -->
<g id="node3" class="node">
<title>:libraries:testLibs:lattetools</title>
<polygon fill="none" stroke="#000000" points="776.6281,-625.6276 595.8048,-625.6276 595.8048,-589.6276 776.6281,-589.6276 776.6281,-625.6276"/>
<text text-anchor="middle" x="686.2165" y="-603.4276" font-family="Helvetica,sans-Serif" font-size="14.00" fill="#000000">:libraries:testLibs:lattetools</text>
</g>
<!-- :app&#45;&gt;:libraries:testLibs:lattetools -->
<g id="edge2" class="edge">
<title>:app-&gt;:libraries:testLibs:lattetools</title>
<path fill="none" stroke="#000000" d="M242.8277,-79.2174C310.6414,-160.0347 584.8311,-486.8013 664.4438,-581.6799"/>
<polygon fill="#000000" stroke="#000000" points="661.79,-583.9624 670.8991,-589.3731 667.1523,-579.4629 661.79,-583.9624"/>
</g>
<!-- :libraries:design -->
<g id="node4" class="node">
<title>:libraries:design</title>
<polygon fill="none" stroke="#000000" points="743.2235,-159.9034 629.2095,-159.9034 629.2095,-123.9034 743.2235,-123.9034 743.2235,-159.9034"/>
<text text-anchor="middle" x="686.2165" y="-137.7034" font-family="Helvetica,sans-Serif" font-size="14.00" fill="#000000">:libraries:design</text>
</g>
<!-- :app&#45;&gt;:libraries:design -->
<g id="edge3" class="edge">
<title>:app-&gt;:libraries:design</title>
<path fill="none" stroke="#000000" d="M254.8846,-65.8479C325.7122,-78.3367 516.8707,-112.0431 619.2829,-130.1012"/>
<polygon fill="#000000" stroke="#000000" points="618.7549,-133.562 629.2108,-131.8517 619.9705,-126.6683 618.7549,-133.562"/>
</g>
<!-- :core:data:local -->
<g id="node5" class="node">
<title>:core:data:local</title>
<polygon fill="none" stroke="#000000" points="826.3858,-392.7655 715.5569,-392.7655 715.5569,-356.7655 826.3858,-356.7655 826.3858,-392.7655"/>
<text text-anchor="middle" x="770.9714" y="-370.5655" font-family="Helvetica,sans-Serif" font-size="14.00" fill="#000000">:core:data:local</text>
</g>
<!-- :app&#45;&gt;:core:data:local -->
<g id="edge4" class="edge">
<title>:app-&gt;:core:data:local</title>
<path fill="none" stroke="#000000" d="M254.8875,-76.8043C343.8704,-128.1787 625.6741,-290.8781 730.861,-351.6078"/>
<polygon fill="#000000" stroke="#000000" points="729.1888,-354.6837 739.5991,-356.6527 732.6888,-348.6216 729.1888,-354.6837"/>
</g>
<!-- :core:data:remote -->
<g id="node6" class="node">
<title>:core:data:remote</title>
<polygon fill="none" stroke="#000000" points="130.9765,-268.8621 5.5845,-268.8621 5.5845,-232.8621 130.9765,-232.8621 130.9765,-268.8621"/>
<text text-anchor="middle" x="68.2805" y="-246.6621" font-family="Helvetica,sans-Serif" font-size="14.00" fill="#000000">:core:data:remote</text>
</g>
<!-- :app&#45;&gt;:core:data:remote -->
<g id="edge5" class="edge">
<title>:app-&gt;:core:data:remote</title>
<path fill="none" stroke="#000000" d="M212.2945,-79.233C183.87,-113.1079 122.7726,-185.9209 90.0397,-224.9305"/>
<polygon fill="#000000" stroke="#000000" points="87.2541,-222.8052 83.5074,-232.7155 92.6164,-227.3048 87.2541,-222.8052"/>
</g>
<!-- :core:common:navigation -->
<g id="node7" class="node">
<title>:core:common:navigation</title>
<polygon fill="none" stroke="#000000" points="313.934,-706.4998 141.2012,-706.4998 141.2012,-670.4998 313.934,-670.4998 313.934,-706.4998"/>
<text text-anchor="middle" x="227.5676" y="-684.2998" font-family="Helvetica,sans-Serif" font-size="14.00" fill="#000000">:core:common:navigation</text>
</g>
<!-- :app&#45;&gt;:core:common:navigation -->
<g id="edge6" class="edge">
<title>:app-&gt;:core:common:navigation</title>
<path fill="none" stroke="#000000" d="M227.5676,-79.1334C227.5676,-167.3301 227.5676,-552.1466 227.5676,-660.1945"/>
<polygon fill="#000000" stroke="#000000" points="224.0677,-660.3241 227.5676,-670.3241 231.0677,-660.3242 224.0677,-660.3241"/>
</g>
<!-- :core:common:form -->
<g id="node8" class="node">
<title>:core:common:form</title>
<polygon fill="none" stroke="#000000" points="136.3422,-516.6689 .2188,-516.6689 .2188,-480.6689 136.3422,-480.6689 136.3422,-516.6689"/>
<text text-anchor="middle" x="68.2805" y="-494.4689" font-family="Helvetica,sans-Serif" font-size="14.00" fill="#000000">:core:common:form</text>
</g>
<!-- :app&#45;&gt;:core:common:form -->
<g id="edge7" class="edge">
<title>:app-&gt;:core:common:form</title>
<path fill="none" stroke="#000000" d="M220.926,-79.2788C196.0563,-147.6076 108.3341,-388.6226 78.3873,-470.9007"/>
<polygon fill="#000000" stroke="#000000" points="75.0818,-469.7494 74.9504,-480.3434 81.6596,-472.1436 75.0818,-469.7494"/>
</g>
<!-- :features:logbook -->
<g id="node9" class="node">
<title>:features:logbook</title>
<polygon fill="none" stroke="#000000" points="533.4831,-749.531 409.736,-749.531 409.736,-713.531 533.4831,-713.531 533.4831,-749.531"/>
<text text-anchor="middle" x="471.6096" y="-727.331" font-family="Helvetica,sans-Serif" font-size="14.00" fill="#000000">:features:logbook</text>
</g>
<!-- :app&#45;&gt;:features:logbook -->
<g id="edge8" class="edge">
<title>:app-&gt;:features:logbook</title>
<path fill="none" stroke="#000000" d="M234.2217,-79.3132C268.002,-172.1238 420.5035,-591.1182 461.4589,-703.6422"/>
<polygon fill="#000000" stroke="#000000" points="458.2522,-705.0655 464.9614,-713.2654 464.8301,-702.6714 458.2522,-705.0655"/>
</g>
<!-- :libraries:testLibs:lattetools&#45;&gt;:libraries:arch -->
<g id="edge9" class="edge">
<title>:libraries:testLibs:lattetools-&gt;:libraries:arch</title>
<path fill="none" stroke="#000000" d="M679.5584,-589.3347C648.6417,-504.3919 519.0168,-148.2504 481.7004,-45.7243"/>
<polygon fill="#000000" stroke="#000000" points="484.8992,-44.2795 478.19,-36.0796 478.3213,-46.6736 484.8992,-44.2795"/>
</g>
<!-- :libraries:design&#45;&gt;:libraries:arch -->
<g id="edge10" class="edge">
<title>:libraries:design-&gt;:libraries:arch</title>
<path fill="none" stroke="#000000" d="M655.0108,-123.8867C617.1042,-102.0014 553.0936,-65.0448 511.6031,-41.0903"/>
<polygon fill="#000000" stroke="#000000" points="513.2632,-38.0073 502.8529,-36.0384 509.7632,-44.0695 513.2632,-38.0073"/>
</g>
<!-- :core:data:local&#45;&gt;:libraries:arch -->
<g id="edge11" class="edge">
<title>:core:data:local-&gt;:libraries:arch</title>
<path fill="none" stroke="#000000" d="M755.7144,-356.583C706.3673,-297.7734 550.9536,-112.5585 493.3607,-43.922"/>
<polygon fill="#000000" stroke="#000000" points="495.9449,-41.5566 486.8358,-36.1459 490.5826,-46.0562 495.9449,-41.5566"/>
</g>
<!-- :core:data:local&#45;&gt;:libraries:testLibs:lattetools -->
<g id="edge12" class="edge">
<title>:core:data:local-&gt;:libraries:testLibs:lattetools</title>
<path fill="none" stroke="#000000" d="M764.3208,-393.0378C749.5292,-433.6772 713.8325,-531.7531 696.2899,-579.951"/>
<polygon fill="#000000" stroke="#000000" points="692.9675,-578.8462 692.8362,-589.4402 699.5453,-581.2404 692.9675,-578.8462"/>
</g>
<!-- :core:data:remote&#45;&gt;:libraries:arch -->
<g id="edge13" class="edge">
<title>:core:data:remote-&gt;:libraries:arch</title>
<path fill="none" stroke="#000000" d="M99.5934,-232.7836C172.0388,-190.9573 351.1364,-87.5552 431.4792,-41.1693"/>
<polygon fill="#000000" stroke="#000000" points="433.4063,-44.0982 440.3166,-36.067 429.9063,-38.036 433.4063,-44.0982"/>
</g>
<!-- :core:data:remote&#45;&gt;:libraries:testLibs:lattetools -->
<g id="edge14" class="edge">
<title>:core:data:remote-&gt;:libraries:testLibs:lattetools</title>
<path fill="none" stroke="#000000" d="M99.7736,-269.0447C202.9805,-328.6312 530.951,-517.9851 645.9233,-584.3644"/>
<polygon fill="#000000" stroke="#000000" points="644.3765,-587.5128 654.7868,-589.4817 647.8765,-581.4506 644.3765,-587.5128"/>
</g>
<!-- :core:common:form&#45;&gt;:libraries:arch -->
<g id="edge15" class="edge">
<title>:core:common:form-&gt;:libraries:arch</title>
<path fill="none" stroke="#000000" d="M83.599,-480.413C145.5604,-406.5703 377.7532,-129.8537 450.0089,-43.7426"/>
<polygon fill="#000000" stroke="#000000" points="452.7443,-45.9278 456.4911,-36.0175 447.382,-41.4282 452.7443,-45.9278"/>
</g>
<!-- :core:common:form&#45;&gt;:libraries:testLibs:lattetools -->
<g id="edge17" class="edge">
<title>:core:common:form-&gt;:libraries:testLibs:lattetools</title>
<path fill="none" stroke="#000000" d="M136.4745,-510.6933C245.3452,-529.8901 459.0071,-567.5645 585.512,-589.8707"/>
<polygon fill="#000000" stroke="#000000" points="585.1383,-593.3588 595.5942,-591.6485 586.3539,-586.4651 585.1383,-593.3588"/>
</g>
<!-- :core:common:form&#45;&gt;:libraries:design -->
<g id="edge16" class="edge">
<title>:core:common:form-&gt;:libraries:design</title>
<path fill="none" stroke="#000000" d="M99.7736,-480.4863C202.9805,-420.8998 530.951,-231.5459 645.9233,-165.1666"/>
<polygon fill="#000000" stroke="#000000" points="647.8765,-168.0804 654.7868,-160.0493 644.3765,-162.0182 647.8765,-168.0804"/>
</g>
<!-- :core:common:form&#45;&gt;:core:data:local -->
<g id="edge19" class="edge">
<title>:core:common:form-&gt;:core:data:local</title>
<path fill="none" stroke="#000000" d="M136.6161,-486.6194C271.9086,-462.7637 572.2657,-409.8027 705.332,-386.3395"/>
<polygon fill="#000000" stroke="#000000" points="706.1452,-389.7502 715.3855,-384.5668 704.9296,-382.8565 706.1452,-389.7502"/>
</g>
<!-- :core:common:form&#45;&gt;:core:data:remote -->
<g id="edge18" class="edge">
<title>:core:common:form-&gt;:core:data:remote</title>
<path fill="none" stroke="#000000" d="M68.2805,-480.447C68.2805,-437.6632 68.2805,-330.5323 68.2805,-279.1791"/>
<polygon fill="#000000" stroke="#000000" points="71.7806,-279.1106 68.2805,-269.1107 64.7806,-279.1107 71.7806,-279.1106"/>
</g>
<!-- :core:common:form&#45;&gt;:core:common:navigation -->
<g id="edge20" class="edge">
<title>:core:common:form-&gt;:core:common:navigation</title>
<path fill="none" stroke="#000000" d="M83.5536,-516.8706C111.9781,-550.7456 173.0754,-623.5586 205.8084,-662.5682"/>
<polygon fill="#000000" stroke="#000000" points="203.2316,-664.9424 212.3407,-670.3531 208.594,-660.4429 203.2316,-664.9424"/>
</g>
<!-- :features:logbook&#45;&gt;:libraries:arch -->
<g id="edge21" class="edge">
<title>:features:logbook-&gt;:libraries:arch</title>
<path fill="none" stroke="#000000" d="M471.6096,-713.176C471.6096,-616.2956 471.6096,-164.3936 471.6096,-46.2971"/>
<polygon fill="#000000" stroke="#000000" points="475.1097,-46.2336 471.6096,-36.2336 468.1097,-46.2337 475.1097,-46.2336"/>
</g>
<!-- :features:logbook&#45;&gt;:libraries:testLibs:lattetools -->
<g id="edge23" class="edge">
<title>:features:logbook-&gt;:libraries:testLibs:lattetools</title>
<path fill="none" stroke="#000000" d="M502.8152,-713.5144C540.7218,-691.629 604.7324,-654.6725 646.2229,-630.7179"/>
<polygon fill="#000000" stroke="#000000" points="648.0629,-633.6971 654.9731,-625.666 644.5628,-627.635 648.0629,-633.6971"/>
</g>
<!-- :features:logbook&#45;&gt;:libraries:design -->
<g id="edge22" class="edge">
<title>:features:logbook-&gt;:libraries:design</title>
<path fill="none" stroke="#000000" d="M478.2676,-713.2381C509.1843,-628.2953 638.8092,-272.1538 676.1257,-169.6276"/>
<polygon fill="#000000" stroke="#000000" points="679.5047,-170.577 679.636,-159.983 672.9268,-168.1828 679.5047,-170.577"/>
</g>
<!-- :features:logbook&#45;&gt;:core:data:local -->
<g id="edge25" class="edge">
<title>:features:logbook-&gt;:core:data:local</title>
<path fill="none" stroke="#000000" d="M486.8665,-713.3485C536.2136,-654.5389 691.6273,-469.324 749.2202,-400.6875"/>
<polygon fill="#000000" stroke="#000000" points="751.9984,-402.8217 755.7451,-392.9114 746.636,-398.3221 751.9984,-402.8217"/>
</g>
<!-- :features:logbook&#45;&gt;:core:data:remote -->
<g id="edge24" class="edge">
<title>:features:logbook-&gt;:core:data:remote</title>
<path fill="none" stroke="#000000" d="M456.2911,-713.2752C394.3297,-639.4324 162.1369,-362.7158 89.8811,-276.6048"/>
<polygon fill="#000000" stroke="#000000" points="92.5081,-274.2904 83.399,-268.8797 87.1458,-278.7899 92.5081,-274.2904"/>
</g>
<!-- :features:logbook&#45;&gt;:core:common:navigation -->
<g id="edge26" class="edge">
<title>:features:logbook-&gt;:core:common:navigation</title>
<path fill="none" stroke="#000000" d="M409.712,-720.6168C383.6906,-716.0285 352.8059,-710.5827 323.9292,-705.491"/>
<polygon fill="#000000" stroke="#000000" points="324.2661,-701.9964 313.8102,-703.7067 323.0505,-708.8901 324.2661,-701.9964"/>
</g>
<!-- :features:logbook&#45;&gt;:core:common:form -->
<g id="edge27" class="edge">
<title>:features:logbook-&gt;:core:common:form</title>
<path fill="none" stroke="#000000" d="M440.2966,-713.4525C367.8513,-671.6261 188.7536,-568.2241 108.4108,-521.8381"/>
<polygon fill="#000000" stroke="#000000" points="109.9838,-518.7048 99.5735,-516.7359 106.4837,-524.767 109.9838,-518.7048"/>
</g>
</g>
</svg>